<svg xmlns="http://www.w3.org/2000/svg" xmlns:xlink="http://www.w3.org/1999/xlink" fill="#0e0e0f" height="800px" width="800px" version="1.1" id="Layer_1" viewBox="-3 -3 496 496" xml:space="preserve"><g id="deeditor_bgCarrier" stroke-width="0">
    <rect id="dee_c_e" x="-3" y="-3" width="496" height="496" rx="0" fill="#6495ed" strokewidth="0"/>
  </g>
<g>
	<g>
		<path d="M415.441,74.138c4.1-29.6-48.4-104.9-125.8-60.4c-35.3,23.9-47.7,66.7-27,111.3l-138.4,138.4    c-54.5-24.5-111.8,3.8-122.2,55.1c-4.4,21.6-2,84,72.2,97.8c2,24,16.1,68.6,81.1,73.9c22.6,1.9,111.7-31.3,71.8-124.8l138.3-138.4    c53,26.7,94.7-4.1,110.3-27C519.541,125.738,448.541,73.738,415.441,74.138z M444.641,179.138c-17.5,25.5-43.2,19.8-54.1,13.5    c-16.1-9.3-38.5-6.2-52,7.3l-138.4,138.4c-13.5,13.5-16.7,34.3-7.3,52c10.4,18.7,4.2,41.6-13.5,54.1c-13.6,8.3-54.2,14-63.5-31.2    c-2.1-19.8-16.6-34.3-36.4-36.4c-12.5-1-44.9-14.6-35.9-53.9c5.3-23.3,34.2-35.5,57.8-23.1c16.6,8.3,38.5,6.2,52-7.3l139.4-138.3    c13.5-13.5,16.7-34.3,7.3-52c-10.4-18.7-4.2-41.6,13.5-54.1c13.5-8.4,53.8-13.9,63.5,31.1c2.1,19.8,16.6,34.3,36.4,36.4    C457.541,123.638,454.041,165.638,444.641,179.138z" fill="#0e0e0f"/>
	</g>
</g>
</svg>